# Blender 3.3.1
# www.blender.org
o Body
v 0.534312 0.398038 -1.233945
v 0.521495 -0.685090 -1.391099
v 0.597757 0.492696 1.800512
v 0.524842 -0.690131 1.594376
v -0.534312 0.398038 -1.233945
v -0.521495 -0.685090 -1.391099
v -0.597757 0.492696 1.800512
v -0.524842 -0.690131 1.594376
v -0.670508 -0.474933 0.000000
v 0.000000 -0.731803 -1.580762
v 0.612217 -0.119878 -1.545410
v -0.627807 0.000000 1.818684
v 0.627807 0.000000 1.818684
v -0.612217 -0.119878 -1.545410
v 0.000000 0.663021 2.000000
v 0.581532 0.662377 0.000000
v 0.000000 -0.619983 2.000000
v -0.581532 0.662377 0.000000
v 0.000000 0.619833 -1.266120
v 0.670508 -0.474933 0.000000
v 0.000000 0.000000 -1.819869
v 0.789760 0.000000 0.000000
v 0.000000 -0.704708 0.000000
v -0.789760 0.000000 0.000000
v 0.000000 0.000000 2.344929
v 0.000000 0.829030 0.000000
vn -0.2975 0.9515 0.0790
vn -0.6409 0.0673 0.7646
vn -0.9664 0.2225 -0.1283
vn -0.1003 -0.9941 0.0421
vn 0.9940 0.0639 0.0885
vn 0.4329 0.5115 -0.7423
vn 0.3497 -0.2986 -0.8880
vn -0.3497 -0.2986 -0.8880
vn -0.4329 0.5115 -0.7423
vn 0.9834 -0.1685 0.0671
vn 0.9808 -0.1787 -0.0781
vn 0.9664 0.2225 -0.1283
vn -0.3226 -0.9415 -0.0976
vn -0.3223 -0.9405 0.1076
vn 0.0830 -0.9964 0.0171
vn -0.9808 -0.1787 -0.0781
vn -0.9834 -0.1685 0.0671
vn -0.9940 0.0639 0.0885
vn -0.5488 -0.3313 0.7675
vn 0.5488 -0.3313 0.7675
vn 0.6409 0.0673 0.7646
vn 0.2744 0.9576 0.0878
vn 0.3857 0.8990 -0.2074
vn -0.2721 0.9494 -0.1569
vn -0.2744 0.9576 0.0878
vn -0.3931 0.4244 0.8157
vn -0.9492 0.2984 -0.1002
vn 0.3226 -0.9415 -0.0976
vn 0.9538 0.2998 0.0197
vn 0.3060 0.6343 -0.7100
vn 0.3431 -0.2917 -0.8928
vn -0.3431 -0.2917 -0.8928
vn -0.3060 0.6343 -0.7100
vn 0.9663 -0.2426 0.0860
vn 0.9658 -0.2425 -0.0921
vn 0.9492 0.2984 -0.1002
vn 0.1003 -0.9941 0.0421
vn -0.0830 -0.9964 0.0171
vn 0.3223 -0.9405 0.1076
vn -0.9658 -0.2425 -0.0921
vn -0.9663 -0.2426 0.0860
vn -0.9538 0.2998 0.0197
vn -0.5909 -0.3922 0.7050
vn 0.5909 -0.3922 0.7050
vn 0.3931 0.4244 0.8157
vn 0.2975 0.9515 0.0790
vn 0.2721 0.9494 -0.1569
vn -0.3857 0.8990 -0.2074
vt 0.625000 0.500000
vt 0.375000 0.500000
vt 0.625000 0.750000
vt 0.375000 0.750000
vt 0.625000 0.250000
vt 0.875000 0.500000
vt 0.375000 0.250000
vt 0.125000 0.500000
vt 0.875000 0.750000
vt 0.625000 1.000000
vt 0.625000 0.000000
vt 0.375000 0.000000
vt 0.375000 1.000000
vt 0.125000 0.750000
vt 0.125000 0.625000
vt 0.375000 0.125000
vt 0.375000 0.375000
vt 0.250000 0.500000
vt 0.500000 0.500000
vt 0.500000 0.000000
vt 0.500000 1.000000
vt 0.500000 0.750000
vt 0.500000 0.250000
vt 0.625000 0.875000
vt 0.750000 0.750000
vt 0.625000 0.625000
vt 0.250000 0.750000
vt 0.375000 0.875000
vt 0.625000 0.125000
vt 0.875000 0.625000
vt 0.625000 0.375000
vt 0.750000 0.500000
vt 0.375000 0.625000
vt 0.500000 0.375000
vt 0.500000 0.625000
vt 0.250000 0.625000
vt 0.500000 0.125000
vt 0.500000 0.875000
vt 0.750000 0.625000
s 0
f 26/39/1 7/9/1 15/25/1
f 25/38/2 7/10/2 12/21/2
f 24/37/3 5/5/3 14/23/3
f 23/36/4 4/4/4 17/27/4
f 22/35/5 3/3/5 13/22/5
f 21/34/6 1/1/6 11/19/6
f 10/17/7 11/19/7 2/2/7
f 14/23/8 10/17/8 6/7/8
f 5/5/9 21/34/9 14/23/9
f 20/33/10 13/22/10 4/4/10
f 11/19/11 20/33/11 2/2/11
f 1/1/12 22/35/12 11/19/12
f 23/36/13 8/14/13 9/15/13
f 6/8/14 23/36/14 9/15/14
f 2/2/15 23/36/15 10/18/15
f 9/16/16 14/23/16 6/7/16
f 12/20/17 9/16/17 8/12/17
f 7/11/18 24/37/18 12/20/18
f 17/28/19 12/21/19 8/13/19
f 13/22/20 17/28/20 4/4/20
f 3/3/21 25/38/21 13/22/21
f 26/39/22 3/3/22 16/26/22
f 19/32/23 16/26/23 1/1/23
f 19/32/24 18/30/24 26/39/24
f 26/39/25 18/30/25 7/9/25
f 25/38/26 15/24/26 7/10/26
f 24/37/27 18/29/27 5/5/27
f 23/36/28 20/33/28 4/4/28
f 22/35/29 16/26/29 3/3/29
f 21/34/30 19/31/30 1/1/30
f 10/17/31 21/34/31 11/19/31
f 14/23/32 21/34/32 10/17/32
f 5/5/33 19/31/33 21/34/33
f 20/33/34 22/35/34 13/22/34
f 11/19/35 22/35/35 20/33/35
f 1/1/36 16/26/36 22/35/36
f 23/36/37 17/27/37 8/14/37
f 6/8/38 10/18/38 23/36/38
f 2/2/39 20/33/39 23/36/39
f 9/16/40 24/37/40 14/23/40
f 12/20/41 24/37/41 9/16/41
f 7/11/42 18/29/42 24/37/42
f 17/28/43 25/38/43 12/21/43
f 13/22/44 25/38/44 17/28/44
f 3/3/45 15/24/45 25/38/45
f 26/39/46 15/25/46 3/3/46
f 19/32/47 26/39/47 16/26/47
f 19/32/48 5/6/48 18/30/48
