# Blender 3.3.1
# www.blender.org
o Cube.003
v 0.082364 -1.419822 0.147091
v -0.042229 0.122303 0.302019
v 0.082364 -1.419822 -0.018086
v -0.042229 0.122303 -0.284239
v 0.224029 -1.419822 0.142929
v 0.242598 0.137673 0.168504
v 0.224029 -1.419822 -0.013924
v 0.242598 0.159230 -0.150725
v 0.011083 -1.419822 0.067166
v 0.067373 -0.573101 0.167897
v -0.046517 0.273621 0.008890
v 0.037842 -0.573101 -0.229187
v 0.151627 -1.419822 -0.070870
v 0.151627 0.122303 -0.264792
v 0.244676 -0.573101 -0.255922
v 0.267467 -1.419822 0.067166
v 0.237345 0.156514 0.008890
v 0.244676 -0.573101 0.074610
v 0.151627 -1.419822 0.182518
v 0.151627 0.122303 0.282572
v 0.151627 0.273621 0.008890
v 0.151627 -1.419822 0.067166
v 0.139895 -0.573101 0.148556
v 0.296150 -0.573101 -0.062433
v 0.151627 -0.573101 -0.309587
v -0.011396 -0.573101 -0.062433
vn -0.9507 -0.1317 -0.2807
vn 0.4988 0.0557 -0.8649
vn 0.9354 0.0410 0.3513
vn 0.2531 -0.1872 0.9492
vn -0.0000 -1.0000 -0.0000
vn -0.0000 0.8751 0.4839
vn 0.8062 0.5901 0.0431
vn 0.8064 0.5903 0.0366
vn -0.0000 0.8751 -0.4839
vn -0.4552 0.0294 0.8899
vn 0.4793 0.0418 0.8766
vn 0.5734 -0.1057 0.8125
vn 0.8674 0.0190 0.4973
vn 0.8769 -0.1016 -0.4698
vn 0.9656 0.0396 -0.2569
vn 0.6012 -0.2331 -0.7644
vn -0.5907 -0.2243 -0.7751
vn -0.5763 0.0525 -0.8156
vn -0.7618 -0.1177 -0.6370
vn -0.7460 -0.0296 0.6653
vn -0.9257 -0.2070 0.3166
vn -0.9991 -0.0420 0.0071
vn 0.7633 0.0940 -0.6392
vn 0.9995 0.0072 -0.0320
vn 0.0983 -0.1735 0.9799
vn 0.0459 0.8879 0.4577
vn 0.4170 0.7954 0.4398
vn 0.2439 0.8487 -0.4693
vn 0.0459 0.8879 -0.4577
vn 0.2576 -0.0192 0.9661
vn 0.5758 0.0518 0.8159
vn 0.7836 -0.1303 0.6074
vn 0.9359 0.0221 0.3515
vn 0.9619 -0.0966 -0.2559
vn 0.9964 0.0770 0.0341
vn 0.4853 -0.2373 -0.8415
vn -0.5624 -0.2244 -0.7959
vn 0.0996 -0.0671 -0.9928
vn -0.9521 -0.1202 -0.2811
vn -0.9459 0.0244 0.3235
vn -0.9991 -0.0409 -0.0065
vt 0.375000 0.000000
vt 0.125000 0.750000
vt 0.375000 1.000000
vt 0.625000 1.000000
vt 0.875000 0.750000
vt 0.625000 0.000000
vt 0.125000 0.500000
vt 0.375000 0.250000
vt 0.875000 0.500000
vt 0.625000 0.250000
vt 0.375000 0.750000
vt 0.625000 0.750000
vt 0.375000 0.500000
vt 0.625000 0.500000
vt 0.125000 0.625000
vt 0.375000 0.125000
vt 0.500000 1.000000
vt 0.500000 0.000000
vt 0.875000 0.625000
vt 0.625000 0.125000
vt 0.500000 0.250000
vt 0.250000 0.500000
vt 0.375000 0.375000
vt 0.750000 0.500000
vt 0.625000 0.375000
vt 0.500000 0.500000
vt 0.375000 0.625000
vt 0.625000 0.625000
vt 0.500000 0.750000
vt 0.375000 0.875000
vt 0.250000 0.750000
vt 0.750000 0.750000
vt 0.625000 0.875000
vt 0.750000 0.625000
vt 0.250000 0.625000
vt 0.500000 0.875000
vt 0.500000 0.625000
vt 0.500000 0.375000
vt 0.500000 0.125000
s 0
f 26/39/1 4/10/1 12/21/1
f 14/25/2 15/26/2 25/38/2
f 17/28/3 18/29/3 24/37/3
f 20/33/4 10/17/4 23/36/4
f 22/35/5 5/11/5 19/31/5
f 11/19/6 20/32/6 21/34/6
f 21/34/7 6/12/7 17/28/7
f 8/14/8 21/34/8 17/28/8
f 14/24/9 11/19/9 21/34/9
f 22/35/5 1/2/5 9/15/5
f 3/7/5 22/35/5 9/15/5
f 7/13/5 22/35/5 13/22/5
f 23/36/10 1/3/10 19/30/10
f 5/11/11 23/36/11 19/30/11
f 6/12/12 23/36/12 18/29/12
f 16/27/13 18/29/13 5/11/13
f 7/13/14 24/37/14 16/27/14
f 8/14/15 24/37/15 15/26/15
f 13/23/16 15/26/16 7/13/16
f 12/21/17 13/23/17 3/8/17
f 12/21/18 14/25/18 25/38/18
f 26/39/19 3/8/19 9/16/19
f 10/18/20 9/16/20 1/1/20
f 2/6/21 26/39/21 10/18/21
f 26/39/22 11/20/22 4/10/22
f 14/25/23 8/14/23 15/26/23
f 17/28/24 6/12/24 18/29/24
f 20/33/25 2/4/25 10/17/25
f 22/35/5 16/27/5 5/11/5
f 11/19/26 2/5/26 20/32/26
f 21/34/27 20/32/27 6/12/27
f 8/14/28 14/24/28 21/34/28
f 14/24/29 4/9/29 11/19/29
f 22/35/5 19/31/5 1/2/5
f 3/7/5 13/22/5 22/35/5
f 7/13/5 16/27/5 22/35/5
f 23/36/30 10/17/30 1/3/30
f 5/11/31 18/29/31 23/36/31
f 6/12/32 20/33/32 23/36/32
f 16/27/33 24/37/33 18/29/33
f 7/13/34 15/26/34 24/37/34
f 8/14/35 17/28/35 24/37/35
f 13/23/36 25/38/36 15/26/36
f 12/21/37 25/38/37 13/23/37
f 12/21/38 4/10/38 14/25/38
f 26/39/39 12/21/39 3/8/39
f 10/18/40 26/39/40 9/16/40
f 2/6/41 11/20/41 26/39/41
