# Blender 3.3.1
# www.blender.org
o Leg
v 0.094872 -1.439939 0.202009
v 0.014471 0.134114 0.292312
v 0.097190 -1.439939 -0.022627
v -0.030039 0.102185 -0.253222
v 0.241246 -1.439572 0.182830
v 0.234904 0.086924 0.174707
v 0.247786 -1.439939 0.004453
v 0.229217 0.123189 -0.119707
v 0.068798 -1.439939 0.098183
v 0.079563 -0.593218 0.084049
v -0.034327 0.253503 0.039907
v 0.097764 -0.593218 -0.253239
v 0.163817 -1.439939 -0.057260
v 0.163817 0.102185 -0.197843
v 0.270167 -0.593218 -0.279974
v 0.264288 -1.439939 0.098183
v 0.249536 0.120473 0.039907
v 0.303504 -0.593218 0.024815
v 0.163817 -1.439939 0.249178
v 0.163817 0.073475 0.272865
v 0.163817 0.219126 0.039907
v 0.163817 -1.439939 0.098183
v 0.187315 -0.593218 0.104799
v 0.321642 -0.593218 -0.130786
v 0.163817 -0.593218 -0.333640
v 0.048526 -0.593218 -0.168674
vn -0.8535 -0.1568 -0.4969
vn 0.4438 0.1717 -0.8795
vn 0.9907 0.0725 0.1155
vn -0.1833 -0.2464 0.9517
vn 0.0047 -1.0000 -0.0000
vn 0.3820 0.7836 0.4899
vn 0.7331 0.6370 0.2381
vn 0.7522 0.6535 -0.0846
vn 0.1538 0.8866 -0.4361
vn -0.0000 -1.0000 -0.0000
vn -0.5579 0.1545 0.8154
vn 0.6464 0.1108 0.7549
vn 0.5627 -0.1234 0.8174
vn 0.9646 -0.0219 0.2627
vn 0.9786 -0.1129 -0.1723
vn 0.9378 0.1260 -0.3236
vn 0.5693 -0.2753 -0.7747
vn -0.4483 -0.2346 -0.8625
vn -0.7668 0.1230 -0.6300
vn -0.9691 -0.0950 -0.2277
vn -0.9698 0.0164 0.2435
vn -0.9846 -0.1261 0.1209
vn -0.9934 -0.1073 0.0408
vn 0.7274 0.1891 -0.6597
vn 0.9895 0.0722 0.1254
vn 0.0139 -0.2741 0.9616
vn -0.0000 -1.0000 0.0043
vn 0.1569 0.9042 0.3973
vn 0.4963 0.7361 0.4603
vn 0.2326 0.8727 -0.4293
vn 0.1295 0.8819 -0.4533
vn -0.1874 0.1322 0.9733
vn 0.5635 0.1114 0.8186
vn 0.8119 -0.1156 0.5722
vn 0.9926 -0.0359 0.1157
vn 0.9369 -0.1333 -0.3233
vn 0.9840 0.1288 -0.1231
vn 0.4325 -0.2798 -0.8571
vn -0.7566 -0.2029 -0.6216
vn 0.2743 0.0504 -0.9603
vn -0.8563 -0.1352 -0.4986
vn -0.9924 0.0147 0.1219
vn -0.9834 -0.1255 0.1308
vt 0.375000 0.000000
vt 0.125000 0.750000
vt 0.375000 1.000000
vt 0.625000 1.000000
vt 0.875000 0.750000
vt 0.625000 0.000000
vt 0.125000 0.500000
vt 0.375000 0.250000
vt 0.875000 0.500000
vt 0.625000 0.250000
vt 0.375000 0.750000
vt 0.625000 0.750000
vt 0.375000 0.500000
vt 0.625000 0.500000
vt 0.125000 0.625000
vt 0.375000 0.125000
vt 0.500000 1.000000
vt 0.500000 0.000000
vt 0.875000 0.625000
vt 0.625000 0.125000
vt 0.500000 0.250000
vt 0.250000 0.500000
vt 0.375000 0.375000
vt 0.750000 0.500000
vt 0.625000 0.375000
vt 0.500000 0.500000
vt 0.375000 0.625000
vt 0.625000 0.625000
vt 0.500000 0.750000
vt 0.375000 0.875000
vt 0.250000 0.750000
vt 0.750000 0.750000
vt 0.625000 0.875000
vt 0.750000 0.625000
vt 0.250000 0.625000
vt 0.500000 0.875000
vt 0.500000 0.625000
vt 0.500000 0.375000
vt 0.500000 0.125000
s 0
f 26/39/1 4/10/1 12/21/1
f 14/25/2 15/26/2 25/38/2
f 17/28/3 18/29/3 24/37/3
f 20/33/4 10/17/4 23/36/4
f 22/35/5 5/11/5 19/31/5
f 21/34/6 2/5/6 20/32/6
f 21/34/7 6/12/7 17/28/7
f 8/14/8 21/34/8 17/28/8
f 14/24/9 11/19/9 21/34/9
f 22/35/10 1/2/10 9/15/10
f 3/7/10 22/35/10 9/15/10
f 7/13/10 22/35/10 13/22/10
f 23/36/11 1/3/11 19/30/11
f 5/11/12 23/36/12 19/30/12
f 6/12/13 23/36/13 18/29/13
f 16/27/14 18/29/14 5/11/14
f 7/13/15 24/37/15 16/27/15
f 8/14/16 24/37/16 15/26/16
f 13/23/17 15/26/17 7/13/17
f 12/21/18 13/23/18 3/8/18
f 12/21/19 14/25/19 25/38/19
f 26/39/20 3/8/20 9/16/20
f 10/18/21 9/16/21 1/1/21
f 10/18/22 11/20/22 26/39/22
f 26/39/23 11/20/23 4/10/23
f 14/25/24 8/14/24 15/26/24
f 17/28/25 6/12/25 18/29/25
f 20/33/26 2/4/26 10/17/26
f 22/35/27 16/27/27 5/11/27
f 21/34/28 11/19/28 2/5/28
f 21/34/29 20/32/29 6/12/29
f 8/14/30 14/24/30 21/34/30
f 14/24/31 4/9/31 11/19/31
f 22/35/10 19/31/10 1/2/10
f 3/7/10 13/22/10 22/35/10
f 7/13/10 16/27/10 22/35/10
f 23/36/32 10/17/32 1/3/32
f 5/11/33 18/29/33 23/36/33
f 6/12/34 20/33/34 23/36/34
f 16/27/35 24/37/35 18/29/35
f 7/13/36 15/26/36 24/37/36
f 8/14/37 17/28/37 24/37/37
f 13/23/38 25/38/38 15/26/38
f 12/21/39 25/38/39 13/23/39
f 12/21/40 4/10/40 14/25/40
f 26/39/41 12/21/41 3/8/41
f 10/18/42 26/39/42 9/16/42
f 10/18/43 2/6/43 11/20/43
